HIERARCHY
ROOT Hips
{
	OFFSET 0.000000 0.000000 0.000000
	CHANNELS 6 Xposition Yposition Zposition Xrotation Yrotation Zrotation
	JOINT LeftUpLeg_virtual
	{
		OFFSET 0.000000 0.000000 0.000000
		CHANNELS 3 Xrotation Yrotation Zrotation
		JOINT LeftUpLeg
		{
			OFFSET 11.394100 -6.187798 -0.413800
			CHANNELS 3 Xrotation Yrotation Zrotation
			JOINT LeftLeg
			{
				OFFSET 0.430247 -32.302673 3.732800
				CHANNELS 3 Xrotation Yrotation Zrotation
				JOINT LeftFoot
				{
					OFFSET -0.430247 -48.264931 -6.423300
					CHANNELS 3 Xrotation Yrotation Zrotation
					JOINT LeftToeBase
					{
						OFFSET 4.230900 -16.068199 23.438400
						CHANNELS 3 Xrotation Yrotation Zrotation
						JOINT LeftToe_End
						{
							OFFSET 4.510700 0.695400 19.974600
							CHANNELS 3 Xrotation Yrotation Zrotation
							End Site
							{
								OFFSET 0 0 0
							}
						}
					}
				}
			}
		}
	}
	JOINT RightUpLeg_virtual
	{
		OFFSET 0.000000 0.000000 0.000000
		CHANNELS 3 Xrotation Yrotation Zrotation
		JOINT RightUpLeg
		{
			OFFSET -11.333700 -6.187798 -0.413800
			CHANNELS 3 Xrotation Yrotation Zrotation
			JOINT RightLeg
			{
				OFFSET -0.430392 -32.302628 3.733000
				CHANNELS 3 Xrotation Yrotation Zrotation
				JOINT RightFoot
				{
					OFFSET 0.430392 -48.264973 -6.423500
					CHANNELS 3 Xrotation Yrotation Zrotation
					JOINT RightToeBase
					{
						OFFSET -4.230900 -16.068199 23.438400
						CHANNELS 3 Xrotation Yrotation Zrotation
						JOINT RightToe_End
						{
							OFFSET -4.510700 0.695400 19.974600
							CHANNELS 3 Xrotation Yrotation Zrotation
							End Site
							{
								OFFSET 0 0 0
							}
						}
					}
				}
			}
		}
	}
	JOINT Spine_virtual
	{
		OFFSET 0.000000 0.000000 0.000000
		CHANNELS 3 Xrotation Yrotation Zrotation
		JOINT Spine
		{
			OFFSET -0.002400 12.777504 0.315300
			CHANNELS 3 Xrotation Yrotation Zrotation
			JOINT Spine1
			{
				OFFSET -0.002067 5.816869 0.032633
				CHANNELS 3 Xrotation Yrotation Zrotation
				JOINT Spine1_split
				{
					OFFSET -0.002067 5.816869 0.032633
					CHANNELS 3 Xrotation Yrotation Zrotation
					JOINT Spine2
					{
						OFFSET -0.002067 5.816869 0.032633
						CHANNELS 3 Xrotation Yrotation Zrotation
						JOINT Neck_virtual
						{
							OFFSET 0.000000 0.000000 0.000000
							CHANNELS 3 Xrotation Yrotation Zrotation
							JOINT Neck
							{
								OFFSET -0.003700 21.199493 -0.826900
								CHANNELS 3 Xrotation Yrotation Zrotation
								JOINT Head
								{
									OFFSET 0.000000 20.442200 4.834800
									CHANNELS 3 Xrotation Yrotation Zrotation
									JOINT HeadTop_End
									{
										OFFSET 0.000000 34.668396 4.968400
										CHANNELS 3 Xrotation Yrotation Zrotation
										End Site
										{
											OFFSET 0 0 0
										}
									}
								}
							}
						}
						JOINT LeftShoulder_virtual
						{
							OFFSET 0.000000 0.000000 0.000000
							CHANNELS 3 Xrotation Yrotation Zrotation
							JOINT LeftShoulder
							{
								OFFSET 3.288150 8.794197 -1.372250
								CHANNELS 3 Xrotation Yrotation Zrotation
								JOINT LeftShoulder_split
								{
									OFFSET 3.288150 8.794197 -1.372250
									CHANNELS 3 Xrotation Yrotation Zrotation
									JOINT LeftArm
									{
										OFFSET 11.953299 -2.279007 -0.146200
										CHANNELS 3 Xrotation Yrotation Zrotation
										JOINT LeftForeArm
										{
											OFFSET 18.448900 0.000000 0.000000
											CHANNELS 3 Xrotation Yrotation Zrotation
											JOINT LeftHand
											{
												OFFSET 29.527798 0.000000 0.000000
												CHANNELS 3 Xrotation Yrotation Zrotation
												End Site
												{
													OFFSET 0 0 0
												}
											}
										}
									}
								}
							}
						}
						JOINT RightShoulder_virtual
						{
							OFFSET 0.000000 0.000000 0.000000
							CHANNELS 3 Xrotation Yrotation Zrotation
							JOINT RightShoulder
							{
								OFFSET -3.249400 8.794197 -1.372250
								CHANNELS 3 Xrotation Yrotation Zrotation
								JOINT RightShoulder_split
								{
									OFFSET -3.249400 8.794197 -1.372250
									CHANNELS 3 Xrotation Yrotation Zrotation
									JOINT RightArm
									{
										OFFSET -11.953299 -2.279007 -0.146200
										CHANNELS 3 Xrotation Yrotation Zrotation
										JOINT RightForeArm
										{
											OFFSET -18.448900 0.000000 0.000000
											CHANNELS 3 Xrotation Yrotation Zrotation
											JOINT RightHand
											{
												OFFSET -29.527802 0.000000 0.000000
												CHANNELS 3 Xrotation Yrotation Zrotation
												End Site
												{
													OFFSET 0 0 0
												}
											}
										}
									}
								}
							}
						}
					}
				}
			}
		}
	}
}
MOTION
Frames: 9
Frame Time: 0.03333333
44.111542 80.749954 224.269623 0.000000 0.000000 0.000000 -3.722136 15.560827 -11.765124 -4.169118 7.009252 -5.459411 70.975392 8.588722 2.498186 -3.607534 0.849210 12.441494 1.137850 -0.285854 -1.538973 0.000000 0.000000 0.000000 -0.399628 19.555935 -12.380466 -56.196665 16.616401 8.439612 33.830074 -3.230733 -5.154455 23.580895 9.383750 6.517194 -8.956288 -2.745894 -0.087390 0.000000 0.000000 0.000000 -1.918584 23.757194 -10.992387 2.284625 -9.089290 -4.837732 3.819151 -2.485968 1.186259 -0.409582 0.026086 0.011737 0.000000 0.000000 0.000000 2.547071 -3.846554 2.146179 -1.999334 3.088867 1.068411 -10.630593 33.076800 4.989105 0.000000 0.000000 0.000000 1.917210 -2.993491 1.618991 -0.558995 -0.365953 -8.775208 1.758537 3.368887 -0.104882 16.285999 -12.450675 -46.497295 26.808812 -85.100988 23.105956 0.000000 0.000000 0.000000 2.919884 -3.383203 1.793309 0.347555 -4.176603 8.432214 2.078260 8.842956 -1.648714 37.875690 11.087397 50.613833 179.875013 83.802009 177.587227 0.000000 0.000000 0.000000 
49.282982 80.957367 234.804581 0.000000 0.000000 0.000000 -5.773455 14.468629 -11.952359 -26.228819 11.533796 -5.207380 87.899432 9.960456 2.981401 -4.171177 -1.523200 15.010242 -2.499319 -0.183300 -2.825024 0.000000 0.000000 0.000000 -1.570813 21.752257 -12.924623 -45.340452 13.380802 7.002942 46.907933 -6.878486 -2.589454 0.419248 5.504153 -1.396979 -8.209090 -2.630892 0.505077 0.000000 0.000000 0.000000 -4.751804 24.812621 -10.653323 5.014871 -6.235048 -4.756513 4.113077 -0.960058 1.409713 -0.735067 0.387006 0.101997 0.000000 0.000000 0.000000 3.194294 -2.369478 2.435401 -3.228113 2.845391 1.084917 -10.373065 30.818251 4.758806 0.000000 0.000000 0.000000 2.850998 -1.383755 1.517417 -0.394528 0.335844 -9.578043 1.198966 1.946092 -2.081264 27.329812 -14.618830 -51.203527 12.316315 -71.112132 8.450773 0.000000 0.000000 0.000000 3.794746 -1.708193 1.810300 -0.118293 -2.612783 10.890476 2.316489 8.055321 -0.495608 23.977734 16.964160 52.664129 -160.942357 88.353845 157.807368 0.000000 0.000000 0.000000 
53.345200 82.053642 242.557556 0.000000 0.000000 0.000000 -7.091266 15.007565 -12.053178 -49.805015 15.580958 -2.898680 99.214447 11.706664 2.823501 -5.401506 -3.557131 18.191207 -6.242212 0.166324 -5.232360 0.000000 0.000000 0.000000 -3.201857 24.042397 -12.826093 -39.045736 10.399381 5.139654 59.373325 -6.965560 -0.080948 -14.635461 5.831956 -5.369271 -10.143792 -2.445021 0.672848 0.000000 0.000000 0.000000 -7.243953 25.199790 -10.756440 7.363601 -3.384641 -4.169460 4.550666 0.390263 1.537633 -0.176765 0.726878 0.210749 0.000000 0.000000 0.000000 3.996763 -0.919306 2.527817 -3.540921 2.635023 1.104393 -9.852043 28.444657 4.769034 0.000000 0.000000 0.000000 3.757618 0.092914 1.533013 -0.266923 1.070614 -9.154725 0.122971 0.644522 -3.081979 34.701104 -16.555544 -54.975592 9.721249 -61.733517 6.622524 0.000000 0.000000 0.000000 4.750304 -0.203615 1.694218 -0.557243 -1.896110 12.292500 2.977643 6.629215 -0.171435 9.243496 20.279001 55.705141 -140.959545 88.714581 137.984684 0.000000 0.000000 0.000000 
56.271770 83.012154 247.327606 0.000000 0.000000 0.000000 -7.017835 16.046785 -12.336986 -68.959127 16.831490 0.484773 104.581459 12.887716 2.367966 -3.752776 -3.914953 19.711185 -7.225992 0.726957 -8.187649 0.000000 0.000000 0.000000 -4.660082 25.776861 -12.698134 -35.885974 8.784942 2.763492 65.892761 -3.335700 0.424012 -19.423868 7.808276 -2.965601 -14.880754 -2.447996 0.441712 0.000000 0.000000 0.000000 -8.396422 25.146448 -11.619420 8.803283 -0.940721 -3.123121 5.036420 1.351569 1.523952 0.544676 1.263815 0.403625 0.000000 0.000000 0.000000 4.853204 0.244424 2.415282 -3.082664 2.400266 1.244756 -9.499883 26.524625 4.948113 0.000000 0.000000 0.000000 4.450026 1.262425 1.626598 -0.203425 1.613254 -8.028041 -0.943078 -0.398189 -2.401358 38.473557 -16.721169 -57.839251 7.536000 -59.228928 5.866715 0.000000 0.000000 0.000000 5.528409 0.870554 1.465727 -0.759689 -1.818484 12.422304 3.769244 5.157173 -0.220889 -2.146992 21.115535 57.781488 -162.670859 87.180541 160.558199 0.000000 0.000000 0.000000 
58.355293 83.223396 250.490585 0.000000 0.000000 0.000000 -5.738316 17.868062 -13.077568 -81.175746 16.136670 4.036957 105.317993 13.389487 1.627157 0.780879 -2.471338 20.173720 -7.205851 0.977109 -9.047970 0.000000 0.000000 0.000000 -4.809417 25.981227 -13.228518 -33.677020 8.366017 0.454534 66.451266 1.151215 -0.454415 -18.660111 9.596803 2.103350 -16.946828 -2.664835 0.092593 0.000000 0.000000 0.000000 -8.135849 24.528893 -12.837701 9.122767 0.788339 -1.733309 5.468966 1.794144 1.400121 1.064108 1.125400 0.505556 0.000000 0.000000 0.000000 5.604119 0.942553 2.209705 -2.296892 2.245689 1.509126 -9.787026 25.555607 5.212527 0.000000 0.000000 0.000000 4.892979 1.895408 1.689148 -0.181729 1.854807 -6.720618 -1.561929 -0.947956 -1.332701 39.340278 -15.605287 -59.798060 4.816378 -61.864254 4.671098 0.000000 0.000000 0.000000 6.064403 1.422246 1.204638 -0.657929 -2.000620 11.688816 4.764895 4.400045 -0.646007 -8.262810 20.115546 58.445375 -169.995649 85.720022 169.006597 0.000000 0.000000 0.000000 
59.785267 82.290138 251.232544 0.000000 0.000000 0.000000 -3.797738 18.955368 -14.352464 -86.229158 14.943175 6.820461 103.658728 13.708558 0.652626 6.983175 0.109468 20.196033 -7.699409 0.804736 -7.206317 0.000000 0.000000 0.000000 -3.993835 25.007204 -14.485641 -31.302125 8.497466 -1.134212 63.582504 4.596453 -1.190611 -17.891330 10.332603 5.993754 -12.792464 -2.793083 -0.157322 0.000000 0.000000 0.000000 -7.072065 23.261749 -14.112561 8.713438 1.822810 -0.244798 5.784072 1.765359 1.206533 2.114736 0.957792 0.596702 0.000000 0.000000 0.000000 6.008800 1.132018 1.991645 -1.470971 2.143944 1.942966 -10.870279 25.548814 5.460055 0.000000 0.000000 0.000000 5.170575 1.968491 1.628667 -0.129594 1.706491 -6.000229 -2.506208 -0.909229 -0.512214 39.107075 -13.928587 -61.206302 0.586989 -66.058974 1.781908 0.000000 0.000000 0.000000 6.342421 1.486439 0.992354 -0.310286 -2.091528 10.532049 5.229018 4.075747 -0.861435 -9.673132 18.377802 58.073397 -171.512061 85.696614 171.552372 0.000000 0.000000 0.000000 
60.770077 80.402412 251.209167 0.000000 0.000000 0.000000 -1.902501 19.554804 -15.989423 -86.594388 13.795190 8.577463 101.568840 13.342124 0.142194 13.525983 2.464087 18.797097 -7.988139 0.517457 -4.659751 0.000000 0.000000 0.000000 -3.098820 24.107361 -16.053035 -28.946594 8.376708 -2.058189 61.378778 6.426884 -1.251384 -18.916334 9.858549 7.458011 -5.208891 -2.489429 -0.660140 0.000000 0.000000 0.000000 -5.525617 22.267016 -15.143095 7.719060 2.231725 1.070581 5.995617 1.452085 1.033505 2.378027 0.911118 0.624095 0.000000 0.000000 0.000000 6.012774 0.903455 1.830294 -0.869006 2.078000 2.447746 -12.430322 26.326705 5.503970 0.000000 0.000000 0.000000 5.431540 1.627496 1.448331 -0.050937 1.200385 -6.063864 -3.431684 -0.126800 -0.577526 38.991429 -12.560417 -62.064290 -3.912623 -68.723123 -1.922281 0.000000 0.000000 0.000000 6.419781 1.248242 0.900910 0.140774 -1.833774 9.558894 4.532981 4.065640 -0.573710 -8.041191 17.017351 57.147134 -168.838356 86.999972 169.421831 0.000000 0.000000 0.000000 
61.310726 78.687233 250.917007 0.000000 0.000000 0.000000 -0.869035 19.470142 -17.260523 -84.365568 13.028868 9.053919 100.136782 12.073734 0.712231 18.613329 3.047196 16.316309 -9.013711 0.149337 -2.088110 0.000000 0.000000 0.000000 -3.107504 23.294048 -17.009271 -27.746546 7.470060 -2.152733 61.599174 6.780254 -1.171395 -20.266133 8.214585 7.907840 0.337608 -1.730666 -1.555242 0.000000 0.000000 0.000000 -3.900271 21.372688 -15.759458 6.473335 2.225003 1.982990 6.083282 1.095428 0.956345 2.104502 0.476397 0.355028 0.000000 0.000000 0.000000 5.755062 0.491793 1.742207 -0.524637 1.958650 2.826084 -13.927605 27.247745 5.293555 0.000000 0.000000 0.000000 5.715250 1.128276 1.280045 0.069412 0.631285 -6.491412 -4.374366 1.005031 -1.775264 39.175974 -12.520682 -62.430627 -6.025935 -69.071599 -3.710578 0.000000 0.000000 0.000000 6.436927 0.923760 0.937527 0.500803 -1.188966 9.223167 3.118629 3.873250 0.073190 -5.384297 16.395662 56.081095 -165.424682 88.081942 166.044002 0.000000 0.000000 0.000000 
61.357155 77.670708 250.067963 0.000000 0.000000 0.000000 -0.896951 19.781575 -17.770689 -80.961258 12.627613 7.991601 99.429038 10.116096 2.413327 21.343132 1.516905 13.506422 -10.545891 -0.241452 -0.333209 0.000000 0.000000 0.000000 -4.379376 23.367003 -16.799923 -28.065300 6.296689 -1.787781 62.915700 6.855847 -1.597742 -20.619844 6.099717 8.829763 0.992185 -0.687975 -2.519427 0.000000 0.000000 0.000000 -2.717355 20.443876 -16.153724 5.396999 1.979411 2.345915 6.128599 0.873235 0.985637 1.377027 0.378049 0.033968 0.000000 0.000000 0.000000 5.472645 0.161509 1.696415 -0.380148 1.666098 2.935875 -14.763457 27.691609 4.820888 0.000000 0.000000 0.000000 5.975816 0.770850 1.213133 0.180379 0.201169 -6.872045 -5.312919 1.857051 -2.486027 39.390568 -13.756360 -62.482209 -5.001027 -67.969794 -2.576538 0.000000 0.000000 0.000000 6.440699 0.689250 1.063010 0.706109 -0.266412 9.544047 1.605652 3.219803 0.546544 -3.078360 16.854217 54.840467 -171.116866 87.943767 171.431273 0.000000 0.000000 0.000000 
